<svg xmlns="http://www.w3.org/2000/svg" viewBox="0 0 185.19 160.72"><title>logo</title><path d="M84.08 4.82c.09 3-1.49 5.23-2.46 7.63-5.93 14.83-12 29.61-18 44.42q-7.2 17.91-14.35 35.84c-3.53 8.9-6.92 17.84-10.42 26.75-.71 1.82-.22 2.58 1.71 2.36 4.26-.5 8.52-1.06 12.79-1.54 8.2-.94 16.36-2.13 24.59-2.86 7.72-.68 15.4-1.76 23.1-2.66a3.63 3.63 0 0 1 3.56 1.41c4.54 5.75 9.14 11.45 13.7 17.18 1.06 1.34.63 2.25-1 2.45-6.18.77-12.38 1.43-18.57 2.2-6.93.86-13.85 1.8-20.77 2.71L60.69 143l-28.83 3.73C22 148 12.15 149.29 2.29 150.56c-.71.09-1.6.41-2.1-.37s.08-1.39.46-2.07c8-14.61 15.84-29.3 24-43.83 6-10.78 12.4-21.38 18.66-32Q56.58 49.63 70 27c4-6.7 8-13.39 12.07-20.09a4.16 4.16 0 0 1 2.01-2.09z" fill="#084d9e"/><path d="M185.18 149.25c0 .41 0 .74-.49.73a1.27 1.27 0 0 1-1.18-.74c-2.2-3.9-5.2-7.21-7.94-10.7q-18.1-23.05-36.21-46.09C131 81.72 122.6 71 114.21 60.2c-3.11-4-6.27-7.92-9.34-11.92-1.25-1.63-1.84-1.24-2.5.44q-7.29 18.5-14.65 37c-2.57 6.47-5.17 12.93-7.63 19.44a4.65 4.65 0 0 1-4.34 3.28c-7 .54-13.86 1.82-20.75 3-.72.13-1.6.52-2.16-.14s.06-1.39.34-2.09Q61.13 89.45 69 69.69c4.8-11.91 9.65-23.8 14.42-35.72C87.06 25 90.57 16 94.12 7c.68-1.71 1.43-3.39 2-5.12.29-.81.42-1.82 1.37-1.91S98.63 1 99 1.57q6.66 11.13 13.24 22.31c12.79 21.65 25.65 43.26 38.34 65 8.36 14.31 16.45 28.78 24.68 43.16 3 5.26 6.06 10.49 9.09 15.73.29.48.57 1 .83 1.48z" fill="#ff6600"/><path d="M10.87 159.89c1-1 2.26-.54 3.37-.71 10.49-1.62 21-3.26 31.47-4.78 6.08-.88 12.19-1.49 18.28-2.34 8.08-1.13 16.14-2.43 24.23-3.56 11.26-1.57 22.53-3 33.78-4.58 4.43-.61 8.83-1.36 13.24-2 1.64-.25 1.71-.83.78-2.16-3.79-5.47-8.09-10.55-12.18-15.79q-12.67-16.23-25.45-32.37a3.9 3.9 0 0 1-.68-4.38c2.74-6.7 5.35-13.45 8-20.19.7-1.77 1.29-2.28 2.75-.42 9.86 12.58 19.84 25.06 29.73 37.62q18.56 23.58 37 47.24c1.66 2.12 3.28 4.26 5 6.36 1.14 1.41.73 2.11-.95 2.25-1.09.09-2.19.07-3.29.07-39.75.08-79.5 0-119.25.32-14.17.13-28.34.15-42.51.2-1.13.01-2.37.33-3.32-.78z" fill="#084d9e"/></svg>